# xmcd
#
# Track frame offsets: 
#        150
#        20605
#        39652
#        65155
#        78322
#        99940
#        120937
#        142377
#        158147
#        177202
#
# Disc length: 2620 seconds
#
# Revision: 0
# Processed by: cddbd v1.5.2PL0 Copyright (c) Steve Scherf et al.
# Submitted via: ExactAudioCopy v0.99pb5
#
DISCID=820a3a0a
DTITLE=Willem Maker - Stars Fell On
DYEAR=2007
DGENRE=Blues
TTITLE0=Aero
TTITLE1=Outside The Limits
TTITLE2=Red As A Rose
TTITLE3=Vale Lost To The World I
TTITLE4=Mount River Song
TTITLE5=Raised In Praise
TTITLE6=Don't Be Long
TTITLE7=Vale Lost To The World II
TTITLE8=Get On Down The Road
TTITLE9=Pale Rider
EXTD=
EXTT0=
EXTT1=
EXTT2=
EXTT3=
EXTT4=
EXTT5=
EXTT6=
EXTT7=
EXTT8=
EXTT9=
PLAYORDER=
